<?xml version="1.0" encoding="UTF-8" standalone="no"?>
<svg
   xmlns:dc="http://purl.org/dc/elements/1.1/"
   xmlns:cc="http://creativecommons.org/ns#"
   xmlns:rdf="http://www.w3.org/1999/02/22-rdf-syntax-ns#"
   xmlns:svg="http://www.w3.org/2000/svg"
   xmlns="http://www.w3.org/2000/svg"
   id="svg7828"
   version="1.1"
   viewBox="0 0 151.30701 79.375002"
   height="300"
   width="571.86902">
  <defs
     id="defs7822" />
  <metadata
     id="metadata7825">
    <rdf:RDF>
      <cc:Work
         rdf:about="">
        <dc:format>image/svg+xml</dc:format>
        <dc:type
           rdf:resource="http://purl.org/dc/dcmitype/StillImage" />
        <dc:title></dc:title>
      </cc:Work>
    </rdf:RDF>
  </metadata>
  <g
     transform="translate(0,-217.62498)"
     id="layer1">
    <g
       style="stroke-width:1.15470219"
       transform="matrix(0.86602413,0,0,0.86602413,218.69694,52.413713)"
       id="g9288">
      <rect
         style="opacity:1;fill:#5f63d3;fill-opacity:1;stroke:none;stroke-width:0.61195689;stroke-linecap:butt;stroke-linejoin:round;stroke-miterlimit:4;stroke-dasharray:none;stroke-opacity:1"
         id="rect1289-5-1-2-9-78-7-5-8-64-5"
         width="65.267731"
         height="99.770256"
         x="-269.23099"
         y="-222.29092"
         transform="rotate(-90)" />
      <path
         style="opacity:1;fill:#5f63d3;fill-opacity:1;stroke:none;stroke-width:0.68539178;stroke-miterlimit:4;stroke-dasharray:none;stroke-opacity:1"
         d="m -153.17968,236.59684 18.84115,-32.63361 h 37.682044 l 18.841153,32.63361 -18.841153,32.63412 h -37.682044 z"
         id="path4408-6-0-7-2-2-0-7-4-1-4-3-4-5-1-2-2-5-0-6-1-3" />
      <path
         style="opacity:0.5;fill:#000000;fill-opacity:1;stroke:none;stroke-width:0.61195683;stroke-linecap:butt;stroke-linejoin:round;stroke-miterlimit:4;stroke-dasharray:none;stroke-opacity:1"
         d="m -222.29082,203.9634 v 65.26784 h 40.2367 l 12.86793,-7.42953 v -50.40983 l -12.8668,-7.42848 z"
         id="rect1289-5-1-2-9-78-7-5-4-4-9" />
      <g
         id="g957-7-8-7-0-9-9-4-7-7-1"
         transform="matrix(0.26125473,0,0,0.26125473,-952.03099,-635.52658)"
         style="fill:#1a1a1a;fill-opacity:1;stroke-width:1.51852918">
        <text
           id="text4487-26-9-3-6-2-2-5-8-1-4-5-0-3-6-8-4-9"
           y="3313.4568"
           x="3043.5867"
           style="font-style:normal;font-variant:normal;font-weight:normal;font-stretch:normal;line-height:0%;font-family:'League Spartan';-inkscape-font-specification:'League Spartan';letter-spacing:-1.90469599px;word-spacing:0px;fill:#1a1a1a;fill-opacity:1;stroke:none;stroke-width:1.51852918px;stroke-linecap:butt;stroke-linejoin:miter;stroke-opacity:1"
           xml:space="preserve"><tspan
             y="3313.4568"
             x="3043.5867"
             id="tspan4489-1-2-1-7-7-9-2-6-0-1-9-2-6-4-9-1-5"
             style="font-style:normal;font-variant:normal;font-weight:normal;font-stretch:normal;font-size:66.98167419px;line-height:1.25;font-family:'League Spartan';-inkscape-font-specification:'League Spartan';fill:#1a1a1a;fill-opacity:1;stroke-width:1.51852918px">HOTS</tspan></text>
        <text
           id="text4487-2-8-2-9-5-0-3-5-8-3-8-46-0-1-24-7-9-2"
           y="3419.2307"
           x="3043.5054"
           style="font-style:normal;font-variant:normal;font-weight:normal;font-stretch:normal;line-height:0%;font-family:'League Spartan';-inkscape-font-specification:'League Spartan';letter-spacing:0px;word-spacing:0px;fill:#1a1a1a;fill-opacity:1;stroke:none;stroke-width:1.51852918px;stroke-linecap:butt;stroke-linejoin:miter;stroke-opacity:1"
           xml:space="preserve"><tspan
             dx="0 -3.6674128 -3.6674128"
             y="3419.2307"
             x="3043.5054"
             id="tspan4489-7-7-8-4-3-9-1-4-8-0-5-9-1-0-5-1-6-0"
             style="font-style:normal;font-variant:normal;font-weight:normal;font-stretch:normal;font-size:109.14965057px;line-height:1.25;font-family:'League Spartan';-inkscape-font-specification:'League Spartan';fill:#1a1a1a;fill-opacity:1;stroke-width:1.51852918px">API</tspan></text>
      </g>
      <path
         style="opacity:1;fill:#5f63d3;fill-opacity:1;stroke:none;stroke-width:7.63787413;stroke-miterlimit:4;stroke-dasharray:none;stroke-opacity:1"
         d="m -212.84231,190.76982 -39.6875,22.91351 v 45.82694 l 39.6875,22.91404 39.68751,-22.91404 v -45.82694 z"
         id="path954-13-2-4-8-9-9-1-3-8-7-2" />
      <path
         style="opacity:1;fill:#1a1a1a;fill-opacity:1;stroke:none;stroke-width:0.34269589;stroke-miterlimit:4;stroke-dasharray:none;stroke-opacity:1"
         d="m -212.84202,198.40797 33.07249,19.09453 v 38.18913 l -33.07249,19.09459 -33.07334,-19.09459 V 217.5025 Z"
         id="path4408-6-0-7-2-2-0-7-4-1-8-9-3-0-0-6-4-2-1-0-1" />
      <path
         style="fill:#5f63d3;fill-opacity:1;stroke-width:0.08159427"
         d="m -216.37403,254.5453 c -0.23312,-0.0318 -1.02814,-0.12613 -1.76672,-0.20952 -3.93135,-0.44391 -7.59826,-1.64465 -9.13017,-2.9897 -0.86416,-0.75861 -1.03829,-1.32441 -1.04196,-3.38138 l -0.003,-1.78814 1.06426,0.6065 c 2.09409,1.19343 5.62525,2.12406 9.7028,2.55707 2.92947,0.31113 8.54597,0.2095 11.23103,-0.20322 3.86673,-0.59431 6.91022,-1.56555 8.56347,-2.73271 l 0.38862,-0.27434 v 1.96844 c 0,1.88056 -0.0169,1.99229 -0.36293,2.50328 -0.46228,0.68112 -0.7795,0.94906 -1.82768,1.54308 -1.56238,0.88556 -4.14245,1.64307 -7.27822,2.13673 -1.41112,0.2222 -8.42406,0.4162 -9.5394,0.26391 z m -0.21195,-7.77855 c -6.12197,-0.54337 -11.02981,-2.41326 -11.58579,-4.41407 -0.16425,-0.59185 -0.19727,-3.88301 -0.0384,-3.81031 0.0584,0.0265 0.61496,0.31002 1.2367,0.62989 1.50565,0.77442 2.78638,1.22202 4.73992,1.65653 3.34518,0.74397 4.66824,0.86414 9.46319,0.85948 3.89693,-0.004 4.70719,-0.0439 6.50099,-0.32165 3.48629,-0.53978 6.15527,-1.32608 7.99677,-2.35582 l 0.90678,-0.50713 v 1.8498 c 0,1.55922 -0.0435,1.93514 -0.27742,2.39356 -0.80575,1.57965 -4.34199,3.02765 -9.20045,3.76755 -1.41901,0.21607 -8.17795,0.39102 -9.74231,0.25217 z m 0.61778,-7.67984 c -6.29779,-0.46487 -11.27534,-2.24403 -12.157,-4.34531 -0.18091,-0.4313 -0.29013,-3.99695 -0.12221,-3.99695 0.0375,0 0.39032,0.19792 0.78345,0.43987 3.29325,2.02633 10.58983,3.22151 17.24576,2.82471 4.84688,-0.28894 8.71812,-1.13843 11.40375,-2.50241 l 1.44865,-0.73567 v 1.83795 c 0,1.40592 -0.0542,1.95199 -0.2303,2.32325 -0.82239,1.73287 -4.74838,3.28941 -9.90769,3.92817 -2.14319,0.26531 -6.39628,0.37911 -8.46441,0.22639 z m 0,-7.77262 c -6.30484,-0.46634 -11.27788,-2.23966 -12.15277,-4.33347 -0.12587,-0.30104 -0.19389,-1.00801 -0.19191,-1.99062 0.006,-2.20182 0.28391,-2.72108 2.02861,-3.76953 4.018,-2.41464 13.26812,-3.32992 20.65105,-2.04332 4.14641,0.72257 7.27512,2.14418 8.06027,3.66223 0.29774,0.57613 0.28984,3.66048 -0.0113,4.29503 -0.84469,1.7802 -4.69082,3.31035 -9.94777,3.95768 -2.17255,0.26752 -6.33843,0.37714 -8.43619,0.222 z"
         id="path4626-9-5-5-0-2-2-6-7" />
    </g>
  </g>
</svg>
