<?xml version="1.0" encoding="UTF-8" standalone="no"?>
<svg
   xmlns:dc="http://purl.org/dc/elements/1.1/"
   xmlns:cc="http://creativecommons.org/ns#"
   xmlns:rdf="http://www.w3.org/1999/02/22-rdf-syntax-ns#"
   xmlns:svg="http://www.w3.org/2000/svg"
   xmlns="http://www.w3.org/2000/svg"
   id="svg7828"
   version="1.1"
   viewBox="0 0 151.30701 79.375002"
   height="300"
   width="571.86902">
  <defs
     id="defs7822" />
  <metadata
     id="metadata7825">
    <rdf:RDF>
      <cc:Work
         rdf:about="">
        <dc:format>image/svg+xml</dc:format>
        <dc:type
           rdf:resource="http://purl.org/dc/dcmitype/StillImage" />
        <dc:title></dc:title>
      </cc:Work>
    </rdf:RDF>
  </metadata>
  <g
     transform="translate(0,-217.62498)"
     id="layer1">
    <g
       style="stroke-width:1.15470183"
       transform="matrix(0.86602441,0,0,0.86602441,215.45653,88.984632)"
       id="g9224">
      <rect
         style="opacity:1;fill:#1a1a1a;fill-opacity:1;stroke:none;stroke-width:0.61195666;stroke-linecap:butt;stroke-linejoin:round;stroke-miterlimit:4;stroke-dasharray:none;stroke-opacity:1"
         id="rect1289-5-1-2-9-78-7-5-8-9"
         width="65.267723"
         height="99.770264"
         x="-227.00246"
         y="-218.5493"
         transform="rotate(-90)" />
      <path
         style="opacity:1;fill:#1a1a1a;fill-opacity:1;stroke:none;stroke-width:0.68539149;stroke-miterlimit:4;stroke-dasharray:none;stroke-opacity:1"
         d="m -149.43786,194.36824 18.84109,-32.63361 h 37.682119 l 18.841072,32.63361 -18.841072,32.63415 h -37.682119 z"
         id="path4408-6-0-7-2-2-0-7-4-1-4-3-4-5-1-2-2-5-0-6-19" />
      <path
         style="opacity:0.5;fill:#000000;fill-opacity:1;stroke:none;stroke-width:0.61195666;stroke-linecap:butt;stroke-linejoin:round;stroke-miterlimit:4;stroke-dasharray:none;stroke-opacity:1"
         d="m -218.54912,161.73483 v 65.26784 h 40.23682 l 12.86795,-7.42953 v -50.40986 l -12.86694,-7.42845 z"
         id="rect1289-5-1-2-9-78-7-5-4-41" />
      <g
         id="g957-7-8-7-0-9-9-4-7-6"
         transform="matrix(0.26125474,0,0,0.26125474,-948.28911,-677.75506)"
         style="fill:#5f63d3;fill-opacity:1;stroke-width:1.5185287">
        <text
           id="text4487-26-9-3-6-2-2-5-8-1-4-5-0-3-6-8-9"
           y="3313.4568"
           x="3043.5867"
           style="font-style:normal;font-variant:normal;font-weight:normal;font-stretch:normal;line-height:0%;font-family:'League Spartan';-inkscape-font-specification:'League Spartan';letter-spacing:-1.90469599px;word-spacing:0px;fill:#5f63d3;fill-opacity:1;stroke:none;stroke-width:1.5185287px;stroke-linecap:butt;stroke-linejoin:miter;stroke-opacity:1"
           xml:space="preserve"><tspan
             y="3313.4568"
             x="3043.5867"
             id="tspan4489-1-2-1-7-7-9-2-6-0-1-9-2-6-4-9-9"
             style="font-style:normal;font-variant:normal;font-weight:normal;font-stretch:normal;font-size:66.98167419px;line-height:1.25;font-family:'League Spartan';-inkscape-font-specification:'League Spartan';fill:#5f63d3;fill-opacity:1;stroke-width:1.5185287px">HOTS</tspan></text>
        <text
           id="text4487-2-8-2-9-5-0-3-5-8-3-8-46-0-1-24-7-7"
           y="3419.2307"
           x="3043.5054"
           style="font-style:normal;font-variant:normal;font-weight:normal;font-stretch:normal;line-height:0%;font-family:'League Spartan';-inkscape-font-specification:'League Spartan';letter-spacing:0px;word-spacing:0px;fill:#5f63d3;fill-opacity:1;stroke:none;stroke-width:1.5185287px;stroke-linecap:butt;stroke-linejoin:miter;stroke-opacity:1"
           xml:space="preserve"><tspan
             dx="0 -3.6674128 -3.6674128"
             y="3419.2307"
             x="3043.5054"
             id="tspan4489-7-7-8-4-3-9-1-4-8-0-5-9-1-0-5-1-1"
             style="font-style:normal;font-variant:normal;font-weight:normal;font-stretch:normal;font-size:109.14965057px;line-height:1.25;font-family:'League Spartan';-inkscape-font-specification:'League Spartan';fill:#5f63d3;fill-opacity:1;stroke-width:1.5185287px">API</tspan></text>
      </g>
      <path
         style="opacity:1;fill:#1a1a1a;fill-opacity:1;stroke:none;stroke-width:7.63787174;stroke-miterlimit:4;stroke-dasharray:none;stroke-opacity:1"
         d="m -209.10055,148.54125 -39.6875,22.91351 v 45.82694 l 39.6875,22.91401 39.68745,-22.91401 v -45.82694 z"
         id="path954-13-2-4-8-9-9-1-3-8-4" />
      <path
         style="opacity:1;fill:#5f63d3;fill-opacity:1;stroke:none;stroke-width:0.34269574;stroke-miterlimit:4;stroke-dasharray:none;stroke-opacity:1"
         d="m -209.10029,156.1794 33.0726,19.09453 v 38.1891 l -33.0726,19.09462 -33.07323,-19.09462 v -38.1891 z"
         id="path4408-6-0-7-2-2-0-7-4-1-8-9-3-0-0-6-4-2-1-5" />
      <path
         style="fill:#1a1a1a;fill-opacity:1;stroke-width:0.08159424"
         d="m -212.6323,212.3167 c -0.2332,-0.0318 -1.02817,-0.12612 -1.76657,-0.20949 -3.93139,-0.44391 -7.59844,-1.64468 -9.13037,-2.98972 -0.86406,-0.75862 -1.03838,-1.32439 -1.04194,-3.38137 l -0.003,-1.78813 1.06423,0.60647 c 2.09426,1.19346 5.62542,2.12409 9.70277,2.5571 2.92952,0.31112 8.54603,0.2095 11.23115,-0.20323 3.86661,-0.5943 6.91012,-1.56554 8.56341,-2.7327 l 0.38865,-0.27437 v 1.96844 c 0,1.88059 -0.0161,1.99232 -0.36297,2.50331 -0.46219,0.68109 -0.77953,0.94903 -1.82759,1.54308 -1.56232,0.88553 -4.14262,1.64307 -7.27822,2.13673 -1.41123,0.2222 -8.42411,0.41617 -9.53945,0.26388 z m -0.21201,-7.77852 c -6.12194,-0.54339 -11.02987,-2.41329 -11.58562,-4.41407 -0.16439,-0.59185 -0.19752,-3.88301 -0.0384,-3.81034 0.0583,0.0265 0.61476,0.31005 1.23661,0.62989 1.5056,0.77442 2.78647,1.22205 4.74001,1.65653 3.34501,0.744 4.66815,0.86417 9.46317,0.85948 3.89686,-0.004 4.70715,-0.0439 6.50096,-0.32162 3.48626,-0.53978 6.15532,-1.3261 7.99668,-2.35582 l 0.90681,-0.50713 v 1.84977 c 0,1.55925 -0.0436,1.93517 -0.27743,2.39359 -0.80588,1.57965 -4.34187,3.02762 -9.20036,3.76752 -1.41898,0.2161 -8.17789,0.39105 -9.74245,0.2522 z m 0.61776,-7.67984 c -6.29779,-0.4649 -11.27529,-2.24403 -12.15692,-4.34531 -0.18096,-0.43132 -0.29004,-3.99698 -0.12229,-3.99698 0.0377,0 0.39026,0.19795 0.78342,0.43987 3.29328,2.02636 10.58997,3.22152 17.24584,2.82474 4.84694,-0.28894 8.71813,-1.13843 11.40384,-2.50241 l 1.44859,-0.73567 v 1.83795 c 0,1.40591 -0.0541,1.95199 -0.23032,2.32325 -0.82229,1.73287 -4.74825,3.28941 -9.90778,3.92817 -2.143,0.26531 -6.39626,0.37908 -8.46438,0.22639 z m 0,-7.77262 c -6.30482,-0.46637 -11.2778,-2.23966 -12.15266,-4.33347 -0.12582,-0.30107 -0.19397,-1.00804 -0.19197,-1.99065 0.005,-2.20179 0.28392,-2.72105 2.02856,-3.7695 4.01805,-2.41464 13.26828,-3.32991 20.65102,-2.04332 4.14649,0.72257 7.27526,2.14418 8.06026,3.66223 0.29794,0.57613 0.28987,3.66048 -0.0113,4.29503 -0.84472,1.7802 -4.69081,3.31035 -9.94762,3.95768 -2.17269,0.26752 -6.33855,0.37714 -8.4363,0.222 z"
         id="path4626-9-5-5-0-2-2-1" />
    </g>
  </g>
</svg>
