<?xml version="1.0" encoding="UTF-8" standalone="no"?>
<svg
   xmlns:dc="http://purl.org/dc/elements/1.1/"
   xmlns:cc="http://creativecommons.org/ns#"
   xmlns:rdf="http://www.w3.org/1999/02/22-rdf-syntax-ns#"
   xmlns:svg="http://www.w3.org/2000/svg"
   xmlns="http://www.w3.org/2000/svg"
   id="svg7828"
   version="1.1"
   viewBox="0 0 264.58333 305.51492"
   height="1154.702"
   width="1000">
  <defs
     id="defs7822" />
  <metadata
     id="metadata7825">
    <rdf:RDF>
      <cc:Work
         rdf:about="">
        <dc:format>image/svg+xml</dc:format>
        <dc:type
           rdf:resource="http://purl.org/dc/dcmitype/StillImage" />
        <dc:title></dc:title>
      </cc:Work>
    </rdf:RDF>
  </metadata>
  <g
     transform="translate(0,8.514921)"
     id="layer1">
    <path
       id="path954-13-2-4-8-9-9-1-3-2-4-8"
       d="M 132.29156,-8.5147634 3.7561798e-5,67.863426 V 220.6198 L 132.29156,296.99987 264.58337,220.6198 V 67.863426 Z"
       style="opacity:1;fill:#5f63d3;fill-opacity:1;stroke:none;stroke-width:6.61458349;stroke-miterlimit:4;stroke-dasharray:none;stroke-opacity:1" />
    <path
       id="path4408-6-0-7-2-2-0-7-4-1-8-9-3-0-0-6-4-2-3-5-6"
       d="M 132.2925,16.945511 242.53431,80.593892 V 207.89084 L 132.2925,271.53951 22.048155,207.89084 V 80.593892 Z"
       style="opacity:1;fill:#1a1a1a;fill-opacity:1;stroke:none;stroke-width:0.29678288;stroke-miterlimit:4;stroke-dasharray:none;stroke-opacity:1" />
    <path
       id="path4626-9-5-5-0-2-3-9"
       d="m 120.51915,204.06975 c -0.77705,-0.10612 -3.42712,-0.42042 -5.88809,-0.69841 -13.10545,-1.47969 -25.32848,-5.48216 -30.434816,-9.96563 -2.880545,-2.52871 -3.461922,-4.41471 -3.473211,-11.27129 l -0.0094,-5.96034 3.547529,2.02156 c 6.980289,3.9782 18.750828,7.0802 32.342638,8.52367 9.76488,1.03697 28.48654,0.69831 37.43674,-0.67752 12.88907,-1.98092 23.03401,-5.21838 28.54486,-9.109 l 1.2954,-0.91449 v 6.56147 c 0,6.26862 -0.0564,6.64096 -1.20979,8.34436 -1.54093,2.27029 -2.59832,3.16343 -6.09223,5.14359 -5.20794,2.95176 -13.80818,5.4768 -24.26074,7.12243 -4.7037,0.74055 -28.08014,1.38713 -31.79794,0.8796 z m -0.7065,-25.92848 c -20.406526,-1.8113 -36.76599,-8.04418 -38.619247,-14.71346 -0.54751,-1.97292 -0.657577,-12.94345 -0.127941,-12.70111 0.194734,0.0884 2.049872,1.03349 4.122322,2.09954 5.018846,2.58149 9.287923,4.07359 15.799726,5.52186 11.15059,2.47998 15.56077,2.88045 31.54394,2.86493 12.98974,-0.0132 15.6906,-0.14628 21.66994,-1.07216 11.62096,-1.79917 20.51754,-4.42025 26.65586,-7.85264 l 3.0226,-1.69041 v 6.16589 c 0,5.19749 -0.14487,6.45056 -0.92475,7.97851 -2.68675,5.2656 -14.47328,10.09216 -30.66811,12.55849 -4.73004,0.72033 -27.25982,1.3034 -32.47434,0.84056 z m 2.05928,-25.59932 c -20.99261,-1.54968 -37.584434,-7.4802 -40.523305,-14.48438 -0.603014,-1.43773 -0.96708,-13.32323 -0.40734,-13.32323 0.125118,0 1.301043,0.65984 2.611493,1.46614 10.977492,6.75452 35.299382,10.73836 57.485782,9.41587 16.15627,-0.96322 29.06039,-3.79485 38.01247,-8.34145 l 4.82882,-2.45222 v 6.12647 c 0,4.68639 -0.18062,6.50672 -0.76764,7.74426 -2.74132,5.77624 -15.82795,10.96461 -33.02561,13.09388 -7.14398,0.88429 -21.32093,1.2636 -28.21467,0.75466 z m 0,-25.90882 c -21.01613,-1.55448 -37.592901,-7.46552 -40.509194,-14.44487 -0.41957,-1.00358 -0.646288,-3.36013 -0.639703,-6.63541 0.01882,-7.339373 0.946384,-9.07024 6.762037,-12.565088 13.39331,-8.048687 44.227,-11.099694 68.83675,-6.81105 13.82135,2.40867 24.25039,7.14727 26.86753,12.207415 0.99248,1.920523 0.96614,12.201583 -0.0376,14.316833 -2.81658,5.934 -15.63604,11.03441 -33.1592,13.19218 -7.24181,0.89183 -21.12807,1.25712 -28.12059,0.73999 z"
       style="fill:#5f63d3;fill-opacity:1;stroke-width:0.07066261" />
  </g>
</svg>
