<?xml version="1.0" encoding="UTF-8" standalone="no"?>
<svg
   xmlns:dc="http://purl.org/dc/elements/1.1/"
   xmlns:cc="http://creativecommons.org/ns#"
   xmlns:rdf="http://www.w3.org/1999/02/22-rdf-syntax-ns#"
   xmlns:svg="http://www.w3.org/2000/svg"
   xmlns="http://www.w3.org/2000/svg"
   xmlns:sodipodi="http://sodipodi.sourceforge.net/DTD/sodipodi-0.dtd"
   xmlns:inkscape="http://www.inkscape.org/namespaces/inkscape"
   id="svg7828"
   version="1.1"
   viewBox="0 0 264.58333 305.51492"
   height="1154.702"
   width="1000"
   sodipodi:docname="logo_only_dark.svg"
   inkscape:version="0.92.2 (5c3e80d, 2017-08-06)">
  <sodipodi:namedview
     pagecolor="#ffffff"
     bordercolor="#666666"
     borderopacity="1"
     objecttolerance="10"
     gridtolerance="10"
     guidetolerance="10"
     inkscape:pageopacity="0"
     inkscape:pageshadow="2"
     inkscape:window-width="1920"
     inkscape:window-height="1017"
     id="namedview12"
     showgrid="false"
     inkscape:zoom="0.20438173"
     inkscape:cx="500"
     inkscape:cy="577.35101"
     inkscape:window-x="-8"
     inkscape:window-y="-8"
     inkscape:window-maximized="1"
     inkscape:current-layer="svg7828" />
  <defs
     id="defs7822" />
  <metadata
     id="metadata7825">
    <rdf:RDF>
      <cc:Work
         rdf:about="">
        <dc:format>image/svg+xml</dc:format>
        <dc:type
           rdf:resource="http://purl.org/dc/dcmitype/StillImage" />
        <dc:title />
      </cc:Work>
    </rdf:RDF>
  </metadata>
  <path
     style="opacity:1;fill:#1a1a1a;fill-opacity:1;stroke:none;stroke-width:6.61458349;stroke-miterlimit:4;stroke-dasharray:none;stroke-opacity:1"
     d="M 132.2917,4.127226e-6 3.3136959e-5,76.378274 V 229.13472 L 132.2917,305.51487 264.58337,229.13472 V 76.378274 Z"
     id="path954-13-2-4-8-9-9-1-3-2-49"
     inkscape:connector-curvature="0" />
  <path
     style="opacity:1;fill:#5f63d3;fill-opacity:1;stroke:none;stroke-width:0.29678288;stroke-miterlimit:4;stroke-dasharray:none;stroke-opacity:1"
     d="M 132.29264,25.460306 242.53428,89.108754 V 216.40575 L 132.29264,280.05448 22.048174,216.40575 V 89.108754 Z"
     id="path4408-6-0-7-2-2-0-7-4-1-8-9-3-0-0-6-4-2-3-2"
     inkscape:connector-curvature="0" />
  <path
     style="fill:#1a1a1a;fill-opacity:1;stroke-width:0.0706626"
     d="m 120.51927,212.58465 c -0.77705,-0.10612 -3.42712,-0.42042 -5.8881,-0.69832 -13.10546,-1.47969 -25.3285,-5.48226 -30.434841,-9.96573 -2.880548,-2.52871 -3.461926,-4.41462 -3.473214,-11.27121 l -0.0094,-5.96044 3.547533,2.02156 c 6.980297,3.97821 18.750842,7.0803 32.342672,8.52368 9.76489,1.03707 28.48657,0.69831 37.43677,-0.67743 12.88909,-1.98101 23.03404,-5.21848 28.5449,-9.109 l 1.2954,-0.91459 v 6.56148 c 0,6.26862 -0.0564,6.64106 -1.20979,8.34437 -1.54093,2.27029 -2.59833,3.16343 -6.09224,5.14359 -5.20794,2.95176 -13.80819,5.4769 -24.26076,7.12244 -4.70371,0.74065 -28.08017,1.38722 -31.79798,0.8796 z m -0.7065,-25.92842 c -20.406544,-1.8113 -36.766026,-8.04427 -38.619285,-14.71356 -0.547511,-1.97283 -0.657578,-12.94337 -0.127941,-12.70113 0.194734,0.0884 2.049874,1.0335 4.122326,2.09964 5.018852,2.58139 9.287933,4.0735 15.79974,5.52177 11.1506,2.47998 15.56079,2.88055 31.54398,2.86493 12.98975,-0.0132 15.69061,-0.14628 21.66996,-1.07206 11.62097,-1.79926 20.51756,-4.42036 26.65589,-7.85274 l 3.0226,-1.69042 v 6.1659 c 0,5.1975 -0.14487,6.45056 -0.92475,7.97861 -2.68675,5.26551 -14.47329,10.09208 -30.66815,12.55842 -4.73004,0.72032 -27.25984,1.30349 -32.47437,0.84064 z m 2.05929,-25.59944 c -20.99263,-1.54968 -37.584479,-7.48011 -40.523353,-14.48439 -0.603015,-1.43774 -0.967081,-13.32324 -0.407341,-13.32324 0.125119,0 1.301045,0.65983 2.611497,1.46624 10.977503,6.75451 35.299417,10.73836 57.485847,9.41578 16.15628,-0.96314 29.06042,-3.79476 38.01251,-8.34136 l 4.82882,-2.45223 v 6.12648 c 0,4.68639 -0.18062,6.50663 -0.76764,7.74417 -2.74132,5.77625 -15.82797,10.96471 -33.02565,13.09389 -7.14398,0.88439 -21.32095,1.26361 -28.21469,0.75466 z m 0,-25.90875 c -21.01615,-1.55457 -37.592945,-7.46553 -40.509242,-14.44488 -0.41957,-1.00359 -0.646289,-3.36014 -0.639703,-6.63552 0.01881,-7.33928 0.946385,-9.07015 6.762044,-12.565 13.393321,-8.048792 44.227041,-11.099709 68.836821,-6.81106 13.82136,2.408579 24.25042,7.14728 26.86756,12.20743 0.99248,1.92043 0.96614,12.20159 -0.0376,14.31676 -2.81658,5.934 -15.63605,11.03451 -33.15923,13.19229 -7.24182,0.89172 -21.1281,1.25711 -28.12062,0.73998 z"
     id="path4626-9-5-5-0-2-5"
     inkscape:connector-curvature="0" />
</svg>
