<?xml version="1.0"?>
<svg
	xmlns="http://www.w3.org/2000/svg"
	width="100"
	height="100"
	viewBox="0 0 17 17"
	version="1.1"
>
	<rect fill="#fff" width="20" height="20"/>

	<rect fill="#000" width="1" height="5" x="1"/>
	<rect fill="#000" width="1" height="5" x="4"/>
	<rect fill="#000" width="3" height="1" x="1.5" y="2"/>

	<rect fill="#000" width="1" height="3" x="6" y="1"/>
	<rect fill="#000" width="1" height="3" x="9" y="1"/>
	<rect fill="#000" width="2" height="1" x="7" y="0"/>
	<rect fill="#000" width="2" height="1" x="7" y="4"/>

	<rect fill="#000" width="5" height="1" x="11" y="0"/>
	<rect fill="#000" width="1" height="4.5" x="13" y=".5"/>

	<rect fill="#000" width="3" height="1" x="2" y="6"/>
	<rect fill="#000" width="2" height="1" x="2" y="8"/>
	<rect fill="#000" width="3" height="1" x="1" y="10"/>
	<rect fill="#000" width="1" height="1" x="1" y="7"/>
	<rect fill="#000" width="1" height="1" x="4" y="9"/>

	<rect fill="#000" width="1" height="1" x="6" y="10"/>

	<rect fill="#000" width="1" height="5" x="1" y="12"/>
	<rect fill="#000" width="1" height="3" x="4" y="13"/>
	<rect fill="#000" width="2.5" height="1" x="1.5" y="12"/>
	<rect fill="#000" width="2.5" height="1" x="1.5" y="16"/>

	<rect fill="#000" width="1" height="3" x="6" y="13"/>
	<rect fill="#000" width="1" height="3" x="9" y="13"/>
	<rect fill="#000" width="2" height="1" x="7" y="12"/>
	<rect fill="#000" width="2" height="1" x="7" y="16"/>

	<rect fill="#000" width="1" height="3" x="11" y="13"/>
	<rect fill="#000" width="1" height="2" x="14" y="14"/>
	<rect fill="#000" width="1.5" height="1" x="13" y="14"/>
	<rect fill="#000" width="2" height="1" x="12" y="12"/>
	<rect fill="#000" width="2" height="1" x="12" y="16"/>
</svg>
